<svg xmlns="http://www.w3.org/2000/svg" viewBox="0 0 512 512" width="512" height="512">
  <!-- Fundo gradiente -->
  <defs>
    <linearGradient id="waterGradient" x1="0%" y1="0%" x2="100%" y2="100%">
      <stop offset="0%" style="stop-color:#0ea5e9"/>
      <stop offset="100%" style="stop-color:#0284c7"/>
    </linearGradient>
    <radialGradient id="poolGradient" cx="50%" cy="30%" r="60%">
      <stop offset="0%" style="stop-color:#67e8f9"/>
      <stop offset="100%" style="stop-color:#0891b2"/>
    </radialGradient>
  </defs>
  
  <!-- Fundo -->
  <rect width="512" height="512" fill="url(#waterGradient)" rx="80"/>
  
  <!-- Piscina -->
  <ellipse cx="256" cy="320" rx="180" ry="120" fill="url(#poolGradient)" opacity="0.8"/>
  <ellipse cx="256" cy="310" rx="160" ry="100" fill="#06b6d4" opacity="0.6"/>
  
  <!-- Ondas na piscina -->
  <path d="M 100 280 Q 150 270 200 280 T 300 280 T 400 280" stroke="#ffffff" stroke-width="3" fill="none" opacity="0.5"/>
  <path d="M 120 300 Q 170 290 220 300 T 320 300 T 400 300" stroke="#ffffff" stroke-width="2" fill="none" opacity="0.4"/>
  
  <!-- Piscineiro (figura humana) -->
  <!-- Cabeça -->
  <circle cx="256" cy="160" r="35" fill="#f4a261"/>
  
  <!-- Chapéu/Boné -->
  <ellipse cx="256" cy="140" rx="40" ry="15" fill="#e76f51"/>
  <ellipse cx="256" cy="135" rx="35" ry="12" fill="#d62828"/>
  
  <!-- Corpo -->
  <rect x="236" y="195" width="40" height="60" fill="#2a9d8f" rx="10"/>
  
  <!-- Braços -->
  <rect x="200" y="200" width="35" height="15" fill="#f4a261" rx="7"/>
  <rect x="277" y="200" width="35" height="15" fill="#f4a261" rx="7"/>
  
  <!-- Mãos segurando equipamento -->
  <!-- Mão esquerda com rede -->
  <circle cx="185" cy="207" r="8" fill="#f4a261"/>
  <rect x="170" y="200" width="20" height="4" fill="#8b4513" rx="2"/>
  <rect x="165" y="190" width="30" height="20" fill="none" stroke="#666" stroke-width="2" opacity="0.7"/>
  
  <!-- Mão direita com kit de teste -->
  <circle cx="327" cy="207" r="8" fill="#f4a261"/>
  <rect x="320" y="195" width="15" height="25" fill="#ff6b6b" rx="3"/>
  <circle cx="327" cy="185" r="3" fill="#fff"/>
  
  <!-- Pernas -->
  <rect x="240" y="255" width="15" height="40" fill="#264653" rx="7"/>
  <rect x="257" y="255" width="15" height="40" fill="#264653" rx="7"/>
  
  <!-- Pés -->
  <ellipse cx="247" cy="300" rx="12" ry="6" fill="#2c3e50"/>
  <ellipse cx="265" cy="300" rx="12" ry="6" fill="#2c3e50"/>
  
  <!-- Equipamentos ao redor -->
  <!-- Produtos químicos (baldes) -->
  <rect x="80" y="380" width="25" height="30" fill="#e9c46a" rx="3"/>
  <rect x="82" y="378" width="21" height="5" fill="#f4a261"/>
  <text x="92" y="400" text-anchor="middle" font-family="Arial" font-size="12" fill="#2c3e50">Cl</text>
  
  <rect x="380" y="370" width="25" height="30" fill="#e76f51" rx="3"/>
  <rect x="382" y="368" width="21" height="5" fill="#d62828"/>
  <text x="392" y="390" text-anchor="middle" font-family="Arial" font-size="12" fill="#fff">pH</text>
  
  <!-- Escova/Aspirador -->
  <rect x="420" y="250" width="8" height="80" fill="#8b4513" rx="4"/>
  <rect x="415" y="245" width="18" height="15" fill="#34495e" rx="2"/>
  
  <!-- Bolhas/Espuma -->
  <circle cx="150" cy="250" r="6" fill="#ffffff" opacity="0.6"/>
  <circle cx="170" cy="240" r="4" fill="#ffffff" opacity="0.5"/>
  <circle cx="350" cy="260" r="5" fill="#ffffff" opacity="0.6"/>
  <circle cx="370" cy="250" r="3" fill="#ffffff" opacity="0.4"/>
  
  <!-- Texto/Logo -->
  <text x="256" y="480" text-anchor="middle" font-family="Arial Black" font-size="32" fill="#ffffff" font-weight="bold">PISCINEIRO</text>
  <text x="256" y="500" text-anchor="middle" font-family="Arial" font-size="16" fill="#e0f2fe">APP</text>
</svg>